<svg xmlns="http://www.w3.org/2000/svg" viewBox="0 0 148 44"><defs/><g fill="none" fill-rule="evenodd"><path fill="#FFF" d="M0 0h148v44H0z"/><path fill="#E3000F" d="M2 2v39.96h99.4c4.91 0 8.19-4.25 10.05-8.98 1.98-5.04 2.36-10.62 1.42-12.24C130.07 19.35 137.49 2 137.49 2H2zm105.7 9.72c.74 0 1.36.26 1.88.78.51.52.77 1.14.77 1.87a2.5 2.5 0 01-.8 1.9c-.5.5-1.12.75-1.84.75-.75 0-1.38-.26-1.89-.77a2.56 2.56 0 01-.76-1.88c0-.77.27-1.42.82-1.93a2.6 2.6 0 011.83-.72zM34 23.5c.38-1.43 1.58-12.73 14.26-12.24 5.83.22 8.98 3.68 9.43 7.6.34 3.03-.78 6.63-.78 6.63H39.99s-1.32 4.84 4.26 5.34c4.93.33 5.67-3.1 5.71-3.1h6.2s-.52 2.88-3.07 5.25c-1.92 1.8-5.01 3.31-9.91 3.06a9.32 9.32 0 01-7.1-3.06c-1.52-1.94-2.8-5.3-2.09-9.48zm-.23 9.8s-4.27 3.36-9.97 2.78c-2.82-.08-5.21-1.22-6.51-3.1a6 6 0 01-1.02-4.1c.45-3.4 2.77-12.17 2.77-12.17H9.86l2.77-4.92h7.49l1.24-5.05h6.03l-1.07 5.1h10.75l-2.9 4.96h-9.1l-2.27 9.27s-1.24 3.39 1.2 4.26c4.68 1.53 8.73-1.87 8.73-1.87l.97 4.52.07.33zm42.44-.31a9.78 9.78 0 01-6.96 3.17c-7.98.48-10.49-1.73-11.27-3.18-1.34-2.47-.35-5.26-.35-5.26h6.04s-1.08 3.87 4.05 3.64c4.6-.2 3.31-3.1 3.27-3.06-.41-2.07-8.45-2.87-10.38-7.49-.96-2.3-.54-7.36 6.04-9.06 6.57-1.7 11.29 1.12 11.29 1.12 3.3 1.73 2.69 5.62 2.69 5.62h-6s.45-2.69-3.76-2.73c-4.35.04-3.56 2.65-3.56 2.65.54 1.99 6.78 2.95 8.93 5.59 2.74 3.34 2.03 6.7-.03 8.98m22.47 2.65h-5.66L92.77 34s-2.52 2.03-7.07 2.15c0 0-4.12.07-6.03-3.18a6.46 6.46 0 01-.72-1.82s-.9-4.84 3.73-8.53c3.64-2.85 12.53-1.98 12.53-1.98s2.56-4.84-1.99-4.72c-3.6-.2-4.1 2.6-4.1 2.6H82.6c1.6-7.13 9.97-8.65 15.89-5.9 4.68 2.17 3.14 6.36 3.14 6.36l-2.98 13.16a6.1 6.1 0 00-.1.83c-.1 1.12.14 2.65.14 2.65z"/><path fill="#E3000F" d="M108.18 13.82c0-.16-.07-.27-.23-.33-.1-.04-.26-.07-.45-.07h-.19v.86h.3c.18 0 .32-.04.42-.11.1-.07.15-.19.15-.35zM40.9 20.47h10.55s1.4-4.6-4.3-4.5c-5.05-.05-6.25 4.5-6.25 4.5z"/><path fill="#E3000F" d="M109.25 15.93c.42-.43.64-.95.64-1.56 0-.59-.21-1.1-.64-1.53a2.08 2.08 0 00-1.54-.67c-.61 0-1.13.22-1.56.67-.42.43-.63.94-.63 1.53 0 .61.21 1.13.64 1.56.43.43.94.65 1.55.65.6 0 1.11-.22 1.54-.65zm-2.7-3.02h1.41c.24.02.43.07.59.16.26.14.39.37.39.7 0 .24-.07.42-.21.53a.95.95 0 01-.5.2 1 1 0 01.41.17c.17.14.26.36.26.66v.34l.05.17h-.73a2.1 2.1 0 01-.05-.4.9.9 0 00-.05-.36.36.36 0 00-.21-.22.85.85 0 00-.26-.04l-.17-.01h-.17v1.03h-.76v-2.93zM85.26 29.69c-.18-.49-.53-5.48 8.96-4.75-.2 5.67-7.47 8.32-8.96 4.75z"/><path fill="#009DDF" d="M146 2v40l-40.34-.04C124.83 31.6 138.46 2 138.46 2H146z"/></g></svg>
